<?xml version="1.0" encoding="UTF-8"?>
<svg version="1.1" xmlns="http://www.w3.org/2000/svg" width="3208" height="3208">
<path d="M0 0 C6.41453617 5.28898135 12.25072606 11.11184865 18.11581224 16.99161375 C19.24554091 18.12047603 20.37548882 19.24911894 21.50563486 20.37756338 C24.61789703 23.48641295 27.72703274 26.59837297 30.83567704 29.71083959 C34.22803255 33.10625785 37.62329695 36.49876527 41.01819018 39.89164585 C46.99310387 45.86382242 52.96614818 51.83786361 58.93799251 57.81310932 C67.87799405 66.75818291 76.82087909 75.70036959 85.76433702 84.64198726 C101.00501542 99.87969745 116.24331977 115.11977976 131.48034668 130.3611412 C146.92614236 145.81132086 162.37303053 161.26040704 177.82126045 176.70815277 C178.30828447 177.1951625 178.79530849 177.68217223 179.29709082 178.18393983 C183.76027631 182.64699357 188.22347398 187.11003512 192.68668616 191.57306217 C203.87903755 202.76495045 215.07122364 213.95700403 226.26330006 225.1491673 C226.77618624 225.66205722 227.28907242 226.17494715 227.8175006 226.70337919 C253.10735698 251.9934498 278.39533609 277.2853973 303.68319511 302.57746506 C312.58626225 311.48201137 321.48933831 320.38654877 330.39244723 329.2910533 C330.94588854 329.84458137 331.49932985 330.39810945 332.06954211 330.9684111 C357.70393088 356.6067969 383.33960226 382.24390007 408.9756025 407.88067453 C410.65210964 409.55723243 412.32861618 411.23379094 414.00512256 412.9103496 C424.11443982 423.01998096 434.22377045 433.12959895 444.33311651 443.23920152 C469.46521986 468.37194372 494.5971629 493.50484623 519.72899723 518.63785744 C520.30114361 519.21003045 520.87328999 519.78220346 521.46277414 520.37171505 C558.52077426 557.43144281 595.57811436 594.49183047 632.634902 631.55277061 C633.2265624 632.1444973 633.8182228 632.73622399 634.4278123 633.34588179 C652.43848118 651.35857137 670.44910121 669.37130978 688.45971169 687.38405775 C708.39070573 707.31741676 728.32170811 727.25076744 748.25274658 747.18408203 C748.85207888 747.78348283 749.45141118 748.38288363 750.06890506 749.00044809 C806.99047998 805.92852324 863.91339964 862.85525368 920.83666715 919.78163638 C923.24769743 922.1927988 925.65872732 924.60396162 928.06975719 927.01512445 C950.25655079 949.20314145 972.44336018 971.39114266 994.63018939 993.57912406 C995.51514002 994.46412065 995.51514002 994.46412065 996.41796845 995.36699597 C998.20423013 997.15335042 999.99049182 998.93970485 1001.77675351 1000.72605929 C1050.03367788 1048.98548952 1098.29046458 1097.24505742 1146.54716209 1145.50471451 C1148.24981027 1147.20746704 1149.95245856 1148.91021947 1151.65510687 1150.61297187 C1206.95644001 1205.9176863 1262.25752517 1261.22264867 1458.41967773 1457.40380859 C1458.89841152 1457.88259234 1459.3771453 1458.36137608 1459.87038617 1458.85466843 C1508.24701931 1507.23635043 1556.62356549 1555.61811939 1605 1604 C1599.7128354 1610.41213787 1593.89244438 1616.24643706 1588.01479828 1622.10940021 C1586.88663744 1623.23842744 1585.75869597 1624.36767391 1584.63095298 1625.49711851 C1581.52405431 1628.60742975 1578.41404522 1631.71461457 1575.3035295 1634.82130795 C1571.91023276 1638.21154193 1568.51984687 1641.60468482 1565.12908781 1644.99745652 C1559.16065162 1650.96862983 1553.19035083 1656.93793375 1547.2188455 1662.90603768 C1538.27937142 1671.8404397 1529.34278426 1680.77772524 1520.40676611 1689.71558365 C1505.1785966 1704.94672136 1489.94805497 1720.17548504 1474.71623421 1735.40297127 C1459.2757299 1750.8390916 1443.83631906 1766.27630443 1428.39824867 1781.71485901 C1427.91154365 1782.20157832 1427.42483863 1782.68829763 1426.92338497 1783.18976602 C1422.46312353 1787.65015921 1418.00287428 1792.11056457 1413.54263953 1796.57098445 C1402.35775439 1807.75633271 1391.17270395 1818.94151566 1379.98754382 1830.12658894 C1379.47497487 1830.63915415 1378.96240591 1831.15171935 1378.43430457 1831.67981684 C1353.16007135 1856.95383583 1327.88396124 1882.22597756 1302.60773087 1907.49799919 C1293.70876228 1916.39548861 1284.8098026 1925.29298694 1275.9108758 1934.19051814 C1275.08110375 1935.02016004 1275.08110375 1935.02016004 1274.23456864 1935.86656237 C1248.61223404 1961.48489994 1222.99118208 1987.1045201 1197.37045883 2012.72446914 C1195.69495028 2014.39992693 1194.01944113 2016.07538411 1192.34393182 2017.75084114 C1182.24062796 2027.85383091 1172.13733746 2037.95683404 1162.03406238 2048.05985261 C1136.91705137 2073.17622477 1111.79988005 2098.29243662 1086.68260002 2123.40853977 C1086.11078516 2123.980328 1085.53897031 2124.55211622 1084.94982773 2125.14123136 C1047.91330285 2162.1760286 1010.87611808 2199.21016581 973.83838081 2236.24375057 C973.24702467 2236.83504043 972.65566852 2237.42633029 972.04639249 2238.03553802 C954.04498281 2256.034927 936.0435243 2274.03426714 918.04205623 2292.03359772 C898.12117989 2311.95210908 878.20031189 2331.87062878 858.27947998 2351.78918457 C857.68045453 2352.38814152 857.08142909 2352.98709846 856.46425135 2353.60420562 C799.57181695 2410.49013979 742.68072726 2467.37741871 685.7899853 2524.26504546 C683.38033224 2526.67456638 680.97067879 2529.08408691 678.56102532 2531.49360743 C656.38689764 2553.66651171 634.21278575 2575.83943177 612.03869367 2598.01237166 C611.44906527 2598.60196942 610.85943686 2599.19156719 610.25194092 2599.79903156 C608.4667047 2601.58417502 606.68146848 2603.36931849 604.89623226 2605.15446196 C556.66701232 2653.38117604 508.43765471 2701.60775245 460.20820791 2749.83423967 C458.50652132 2751.5358219 456.80483484 2753.23740425 455.10314838 2754.93898662 C399.83305831 2810.20569539 344.5627203 2865.47215619 148.50439453 3061.51147461 C147.78666862 3062.22912558 147.78666862 3062.22912558 147.05444319 3062.96127456 C98.70305731 3111.30761157 50.35158448 3159.65386162 2 3208 C-1.62475614 3206.46733399 -3.94026063 3204.3095144 -6.71040462 3201.53893771 C-7.17216003 3201.0798408 -7.63391545 3200.62074389 -8.10966345 3200.14773496 C-9.66537762 3198.59852089 -11.21383088 3197.04224544 -12.76245284 3195.48594415 C-13.89019969 3194.35992776 -15.01838502 3193.23435038 -16.14696947 3192.1091735 C-19.27058933 3188.99241352 -22.3878942 3185.86940181 -25.50427198 3182.74540292 C-28.89948174 3179.34409056 -32.30048136 3175.948576 -35.70075816 3172.55233049 C-41.69020738 3166.56836612 -47.67589683 3160.58066097 -53.65920743 3154.59055893 C-62.61643703 3145.62320202 -71.5794115 3136.66160362 -80.54354786 3127.70115165 C-95.81800454 3112.43263689 -111.08770872 3097.15937716 -126.35485649 3081.88355446 C-141.83460298 3066.39504471 -157.31652851 3050.90871791 -172.80114174 3035.42507362 C-173.28903701 3034.93720693 -173.77693229 3034.44934024 -174.27961227 3033.94668971 C-178.75068869 3029.47587678 -183.22178948 3025.00508821 -187.69291929 3020.53432868 C-198.90591815 3009.32225615 -210.11858628 2998.10985292 -221.33103514 2986.89723039 C-221.84489547 2986.38336256 -222.3587558 2985.86949473 -222.88818766 2985.34005515 C-248.2352392 2959.992575 -273.57853518 2934.64134075 -298.92159271 2909.2898674 C-307.84571225 2900.36278955 -316.76984962 2891.43572952 -325.6940527 2882.50873518 C-326.24879445 2881.95381989 -326.8035362 2881.39890461 -327.37508831 2880.8271737 C-353.06287007 2855.13140001 -378.75321502 2829.43818962 -404.44421867 2803.74563727 C-406.12402933 2802.06572509 -407.80383879 2800.3858117 -409.48364793 2798.705898 C-419.6127916 2788.57612614 -429.74196199 2778.44638102 -439.87116324 2768.31666675 C-465.05337843 2743.13317379 -490.23527301 2717.94936025 -515.41695023 2692.76532936 C-515.99025097 2692.19197535 -516.56355172 2691.61862133 -517.15422522 2691.02789296 C-554.29138573 2653.88727677 -591.42722601 2616.74534084 -628.56196213 2579.60230064 C-629.45141846 2578.71264544 -629.45141846 2578.71264544 -630.35884361 2577.80501741 C-648.40966448 2559.75015509 -666.46038769 2541.69519514 -684.51109179 2523.64021609 C-704.48650569 2503.66007228 -724.46193624 2483.67994513 -744.43743896 2463.69989014 C-745.33843474 2462.79868886 -745.33843474 2462.79868886 -746.25763246 2461.8792815 C-803.29854413 2404.82537097 -860.34214398 2347.77414846 -917.3864399 2290.72362163 C-919.80239655 2288.30740069 -922.21835242 2285.89117898 -924.63430825 2283.47495724 C-946.86632011 2261.2404986 -969.09836352 2239.00607152 -991.33044659 2216.77168407 C-991.92161357 2216.1804558 -992.51278056 2215.58922753 -993.1218617 2214.98008326 C-994.91175629 2213.19000314 -996.7016509 2211.39992304 -998.4915455 2209.60984293 C-1046.84746886 2161.24890777 -1095.2031169 2112.88769732 -1143.55858661 2064.52630855 C-1145.26474511 2062.81994134 -1146.97090383 2061.11357434 -1148.67706261 2059.40720741 C-1204.09495769 2003.98254941 -1259.51235679 1948.55739558 -1456.09667969 1751.93505859 C-1456.81635429 1751.21523411 -1456.81635429 1751.21523411 -1457.55056778 1750.48086771 C-1506.03390219 1701.98743544 -1554.51706272 1653.49382932 -1603 1605 C-1601.46733399 1601.37524386 -1599.3095144 1599.05973937 -1596.53893771 1596.28959538 C-1596.0798408 1595.82783997 -1595.62074389 1595.36608455 -1595.14773496 1594.89033655 C-1593.59852089 1593.33462238 -1592.04224544 1591.78616912 -1590.48594415 1590.23754716 C-1589.35992776 1589.10980031 -1588.23435038 1587.98161498 -1587.1091735 1586.85303053 C-1583.99241352 1583.72941067 -1580.86940181 1580.6121058 -1577.74540292 1577.49572802 C-1574.34409056 1574.10051826 -1570.948576 1570.69951864 -1567.55233049 1567.29924184 C-1561.56836612 1561.30979262 -1555.58066097 1555.32410317 -1549.59055893 1549.34079257 C-1540.62320202 1540.38356297 -1531.66160362 1531.4205885 -1522.70115165 1522.45645214 C-1507.43263689 1507.18199546 -1492.15937716 1491.91229128 -1476.88355446 1476.64514351 C-1461.39504471 1461.16539702 -1445.90871791 1445.68347149 -1430.42507362 1430.19885826 C-1429.93720693 1429.71096299 -1429.44934024 1429.22306771 -1428.94668971 1428.72038773 C-1424.47587678 1424.24931131 -1420.00508821 1419.77821052 -1415.53432868 1415.30708071 C-1404.32225615 1404.09408185 -1393.10985292 1392.88141372 -1381.89723039 1381.66896486 C-1381.38336256 1381.15510453 -1380.86949473 1380.6412442 -1380.34005515 1380.11181234 C-1354.992575 1354.7647608 -1329.64134075 1329.42146482 -1304.2898674 1304.07840729 C-1295.36278955 1295.15428775 -1286.43572952 1286.23015038 -1277.50873518 1277.3059473 C-1276.95381989 1276.75120555 -1276.39890461 1276.1964638 -1275.8271737 1275.62491169 C-1250.13140001 1249.93712993 -1224.43818962 1224.24678498 -1198.74563727 1198.55578133 C-1197.06572509 1196.87597067 -1195.3858117 1195.19616121 -1193.705898 1193.51635207 C-1183.57612614 1183.3872084 -1173.44638102 1173.25803801 -1163.31666675 1163.12883676 C-1138.13317379 1137.94662157 -1112.94936025 1112.76472699 -1087.76532936 1087.58304977 C-1087.19197535 1087.00974903 -1086.61862133 1086.43644828 -1086.02789296 1085.84577478 C-1048.88727677 1048.70861427 -1011.74534084 1011.57277399 -974.60230064 974.43803787 C-974.00919718 973.84506698 -973.41609371 973.25209609 -972.80501741 972.64115639 C-954.75015509 954.59033552 -936.69519514 936.53961231 -918.64021609 918.48890821 C-898.66007228 898.51349431 -878.67994513 878.53806376 -858.69989014 858.56256104 C-858.09908929 857.96189718 -857.49828843 857.36123333 -856.8792815 856.74236754 C-799.82537097 799.70145587 -742.77414846 742.65785602 -685.72362163 685.6135601 C-683.30740069 683.19760345 -680.89117898 680.78164758 -678.47495724 678.36569175 C-656.2404986 656.13367989 -634.00607152 633.90163648 -611.77168407 611.66955341 C-610.88484167 610.78280293 -610.88484167 610.78280293 -609.98008326 609.8781383 C-608.19000314 608.08824371 -606.39992304 606.2983491 -604.60984293 604.5084545 C-556.24890777 556.15253114 -507.88769732 507.7968831 -459.52630855 459.44141339 C-457.81994134 457.73525489 -456.11357434 456.02909617 -454.40720741 454.32293739 C-398.98254941 398.90504231 -343.55739558 343.48764321 -146.93505859 146.90332031 C-146.21523411 146.18364571 -146.21523411 146.18364571 -145.48086771 145.44943222 C-96.98743544 96.96609781 -48.49382932 48.48293728 0 0 Z " fill="#121212" transform="translate(1603,0)"/>
<path d="M0 0 C1.1923648 0.00358503 2.38472959 0.00717006 3.61322665 0.01086372 C4.26859203 0.01155269 4.9239574 0.01224167 5.59918234 0.01295152 C7.78821637 0.01664736 9.9771481 0.02770426 12.16615558 0.03892368 C13.7140759 0.0434055 15.26199725 0.0475461 16.80991936 0.05136251 C21.65029236 0.06544303 26.4905752 0.09033821 31.33088946 0.11764377 C32.06789706 0.12164891 32.80490466 0.12565405 33.56424582 0.12978056 C43.88718781 0.18659725 54.20987688 0.26861842 64.53259382 0.35660817 C68.77859874 0.39246854 73.02461733 0.42664159 77.27063441 0.46102661 C84.62426202 0.5207758 91.97788136 0.58146277 99.331496 0.64278644 C111.10993649 0.74096676 122.88839533 0.83683052 134.66685748 0.93237156 C138.75580296 0.96556365 142.84474832 0.99876982 146.93369365 1.03198093 C147.95735759 1.04029411 148.98102154 1.04860728 150.0357056 1.05717237 C157.40067107 1.11700763 164.76563449 1.1770902 172.13059688 1.2373032 C173.71659218 1.25026953 173.71659218 1.25026953 175.3346278 1.26349781 C176.39513008 1.27216805 177.45563235 1.28083829 178.54827106 1.28977126 C224.20232392 1.66300717 269.85642376 2.03032372 315.51057696 2.39108127 C317.10552181 2.40368918 317.10552181 2.40368918 318.73268777 2.4165518 C382.69369372 2.92199007 446.65429178 3.38479728 510.61672711 3.66863722 C525.31442738 3.73395561 540.01211875 3.80117829 554.70979571 3.87155002 C555.56502126 3.87563114 556.4202468 3.87971225 557.30138826 3.88391703 C612.60123274 4.1491518 667.90009923 4.58713008 723.19885898 5.01743782 C732.44794272 5.08935042 741.69703639 5.15983771 750.946138 5.22941151 C763.7309188 5.3255877 776.51567486 5.42434774 789.30040509 5.52706254 C795.50710372 5.57691305 801.71380514 5.6258423 807.92053294 5.67193264 C810.26711202 5.68953341 812.61369063 5.7071977 814.96026874 5.72492832 C816.09881507 5.73352235 817.23736141 5.74211638 818.41040915 5.75097084 C827.02566749 5.81871803 835.64030252 5.91913781 844.25509864 6.0303477 C850.31724737 6.10262679 856.37622713 6.11675718 862.43869525 6.08408207 C866.26030147 6.06944248 870.08132376 6.08750623 873.90285695 6.11216587 C875.66299623 6.11575739 877.42323916 6.10474713 879.18317258 6.07758945 C894.04325725 5.85648326 894.04325725 5.85648326 899.61015582 11.24548191 C902.1645746 14.34738519 904.22664296 17.44709245 905.70198321 21.20358127 C908.35340569 27.34744166 911.76679677 32.67639088 915.45588946 38.24264377 C916.81133708 40.37251255 918.16403432 42.50413329 919.51448321 44.63717502 C925.37558846 53.82702334 931.45891968 62.87051594 937.51838946 71.93014377 C948.85560036 88.88156856 960.1113481 105.88435903 971.29841876 122.93527073 C977.77465399 132.79519324 984.34813218 142.57906988 991.02888751 152.30148166 C996.91326399 160.86977503 1002.7093242 169.49821162 1008.51838946 178.11764377 C1009.15317218 179.05906223 1009.78795489 180.00048069 1010.44197345 180.97042698 C1018.45151355 192.84982377 1026.43480769 204.74556586 1034.36482501 216.67819065 C1041.47115813 227.35771854 1048.65286036 237.98622355 1055.83088946 248.61764377 C1064.38042955 261.28041681 1072.90964614 273.95496669 1081.36604571 286.68014377 C1088.47213715 297.35891102 1095.65328932 307.98685888 1102.83088946 318.61764377 C1110.69444208 330.26439683 1118.55278374 341.91360664 1126.33088946 353.61764377 C1134.21932679 365.48407609 1142.17718349 377.30331241 1150.14338946 389.11764377 C1150.7522298 390.02103489 1151.36107013 390.924426 1151.98836017 391.8551926 C1158.32721148 401.25932212 1164.68418135 410.6501512 1171.09651446 420.00436252 C1176.53935421 427.94521478 1181.92991371 435.91879486 1187.26838946 443.93014377 C1187.69154437 444.56418125 1188.11469928 445.19821872 1188.55067706 445.85146946 C1194.04180177 454.08367261 1199.43649871 462.36609038 1204.70588946 470.74264377 C1212.19862412 482.64190581 1220.28030856 494.1005112 1228.49104571 505.51217502 C1233.72420298 512.80768909 1238.77128313 520.18206467 1243.51838946 527.80514377 C1244.22354693 528.91913547 1244.22354693 528.91913547 1244.94295001 530.05563205 C1245.58937457 531.11306614 1245.58937457 531.11306614 1246.24885821 532.19186252 C1246.62808429 532.8063425 1247.00731036 533.42082248 1247.39802814 534.05392307 C1248.67312225 536.87474761 1249.19982554 539.00409964 1249.33088946 542.11764377 C1248.18343443 544.64806834 1247.06567159 546.69566559 1245.55745196 548.98873752 C1245.1493529 549.63709064 1244.74125384 550.28544376 1244.32078815 550.95344394 C1243.01011817 553.02132891 1241.67384715 555.07060588 1240.33088946 557.11764377 C1239.6922597 558.10151066 1239.6922597 558.10151066 1239.04072833 559.10525364 C1235.97334127 563.82682512 1232.84647492 568.50705987 1229.70588946 573.18014377 C1228.73247018 574.63395312 1227.75924688 576.0878937 1226.78621173 577.54196018 C1219.58113275 588.2986804 1212.31831284 599.01547035 1204.9939754 609.69137424 C1203.35515501 612.08224286 1201.72115418 614.47632981 1200.08870196 616.87155002 C1193.49152179 626.54560435 1186.82707044 636.17124952 1180.13411212 645.77926487 C1164.39833018 668.3721916 1148.96614106 691.17448696 1133.48811603 713.94430393 C1129.22974682 720.20848262 1124.97014568 726.47182366 1120.71077228 732.73531955 C1117.14363026 737.98097179 1113.57679284 743.22683061 1110.01057696 748.47311252 C1102.67802188 759.25940732 1095.33958698 770.04163019 1087.99006915 780.81637424 C1081.14584137 790.85205211 1074.31705083 800.89821632 1067.48811603 810.94430393 C1063.93628592 816.1691441 1060.38354594 821.39336549 1056.83088946 826.61764377 C1055.41421834 828.70097408 1053.99755168 830.78430741 1052.58088946 832.86764377 C1038.4142228 853.70097711 1024.24755613 874.53431044 1010.08088946 895.36764377 C1009.37947833 896.39913547 1008.6780672 897.43062717 1007.95540118 898.4933762 C1006.54037993 900.57428023 1005.1253409 902.65517218 1003.71028399 904.73605198 C1000.14329573 909.98145394 996.57662789 915.22707327 993.01057696 920.47311252 C985.6795066 931.25722327 978.34277143 942.03740947 970.99446368 952.80978245 C966.26694453 959.74144037 961.54782567 966.67878096 956.83088946 973.61764377 C955.39732257 975.72573495 953.963729 977.83380799 952.53010821 979.94186252 C950.46760568 982.97467551 948.40550971 986.00775917 946.34504962 989.04196018 C939.70849663 998.81481696 933.04710962 1008.56768183 926.26838946 1018.24264377 C925.40866534 1019.47023411 925.40866534 1019.47023411 924.53157306 1020.72262424 C921.63600408 1024.85087129 918.72693807 1028.96886409 915.79963946 1033.07467502 C906.21447851 1046.56529327 896.74328779 1060.29284712 889.33088946 1075.11764377 C813.76088946 1075.11764377 738.19088946 1075.11764377 660.33088946 1075.11764377 C669.59561574 1056.58819122 669.59561574 1056.58819122 675.01838946 1048.30514377 C675.67065509 1047.29653293 676.32292071 1046.28792209 676.99495196 1045.24874729 C687.18273424 1029.56231911 697.76227033 1014.12789494 708.24876666 998.64071506 C713.04382956 991.55405557 717.79176177 984.43759622 722.51838946 977.30514377 C726.80253037 970.84984702 731.14705241 964.45869656 735.69246173 958.1845383 C739.03039998 953.5723923 742.25081065 948.88540033 745.45588946 944.18014377 C752.33097444 934.09212555 759.30158671 924.07203633 766.28254962 914.0570969 C769.63507298 909.24608603 772.98274556 904.43170294 776.33088946 899.61764377 C777.66160436 897.70487343 778.99233355 895.79211303 780.32307696 893.87936252 C783.01658727 890.00752369 785.70920433 886.13506572 788.40120196 882.26217502 C796.4477609 870.68739048 804.51408674 859.12678008 812.60432696 847.58248752 C814.36858966 845.0638229 816.13122172 842.54402449 817.89338946 840.02389377 C823.84081941 831.51931303 829.80137392 823.02449445 835.79231524 814.5505051 C839.65462431 809.08411762 843.49537571 803.60285775 847.33088946 798.11764377 C853.15207379 789.79358909 858.99943167 781.48845999 864.86311603 773.19430393 C867.3540993 769.66996864 869.84237011 766.14371905 872.33088946 762.61764377 C875.30615398 758.40188124 878.28188739 754.186456 881.26057696 749.97311252 C887.23643324 741.51791162 893.18624085 733.0449552 899.11946368 724.55978245 C902.84337842 719.23631666 906.58060389 713.92255901 910.33088946 708.61764377 C919.79166442 695.22763991 929.2012542 681.80599865 938.43831134 668.26046604 C944.07718337 660.00245045 949.81801986 651.81689696 955.56477618 643.63375705 C958.4911081 639.46472516 961.41067046 635.29095857 964.33088946 631.11764377 C965.49752336 629.45095417 966.66419003 627.7842875 967.83088946 626.11764377 C968.40838946 625.29264377 968.98588946 624.46764377 969.58088946 623.61764377 C974.83088946 616.11764377 974.83088946 616.11764377 976.57893634 613.6208176 C977.75259354 611.94390744 978.92576609 610.26665797 980.09846759 608.58907932 C982.90442521 604.5762958 985.7167968 600.56853297 988.54963946 596.57467502 C996.10879527 585.8917792 1003.43860361 575.06273766 1010.70588946 564.18014377 C1011.17438312 563.47999149 1011.64287677 562.77983921 1012.1255672 562.05847019 C1018.05482018 553.1904798 1023.81543362 544.24974387 1029.33088946 535.11764377 C1025.94841338 528.88631378 1021.97226208 523.16088126 1017.89338946 517.36764377 C1016.44616253 515.30036399 1014.999556 513.23264976 1013.55354571 511.16451877 C1012.8369881 510.14035862 1012.12043048 509.11619846 1011.38215899 508.06100315 C1008.50440693 503.93172692 1005.66440609 499.77734458 1002.83088946 495.61764377 C998.03818876 488.58904757 993.19575849 481.59646917 988.33088946 474.61764377 C983.46601676 467.6388131 978.62403205 460.64594219 973.83088946 453.61764377 C968.31739822 445.5335454 962.73663617 437.49752359 957.14265704 429.46896213 C951.07583512 420.75941527 945.05936188 412.0162056 939.05842853 403.26119846 C933.18195172 394.69040403 927.26962006 386.145444 921.33088946 377.61764377 C914.53462312 367.85845354 907.78202607 358.07052996 901.05842853 348.26119846 C895.18195172 339.69040403 889.26962006 331.145444 883.33088946 322.61764377 C876.53462312 312.85845354 869.78202607 303.07052996 863.05842853 293.26119846 C861.75403653 291.35875317 860.44894445 289.45679115 859.14338946 287.55514377 C858.69487628 286.90175022 858.2463631 286.24835666 857.7842586 285.5751633 C855.14397449 281.73516553 852.48857247 277.9062132 849.81917071 274.08639377 C848.5313139 272.2427111 847.24355708 270.39895858 845.95588946 268.55514377 C845.29347247 267.6070383 844.63105548 266.65893284 843.94856524 265.6820969 C839.92330201 259.90136381 835.95073588 254.08944215 832.02229571 248.24264377 C831.56635028 247.56508533 831.11040484 246.88752689 830.64064288 246.18943638 C828.40429855 242.86531061 826.17352685 239.53769742 823.95247149 236.20333713 C814.96035294 222.51226585 814.96035294 222.51226585 804.33088946 210.11764377 C802.96854379 209.99757262 801.60016125 209.94509911 800.23276019 209.92025608 C799.34538983 209.90190708 798.45801948 209.88355808 797.54375911 209.86465305 C796.06662472 209.84196354 796.06662472 209.84196354 794.55964923 209.81881565 C793.52418649 209.799379 792.48872375 209.77994236 791.42188334 209.75991672 C787.93459381 209.69653487 784.44723116 209.64112286 780.95979571 209.58639377 C778.48051204 209.54444364 776.00122839 209.50249211 773.52194476 209.46053928 C742.38664133 208.95322274 711.24778035 208.79244234 680.10927844 208.6046204 C671.48123811 208.5525155 662.85321409 208.49878483 654.22521573 208.44009489 C649.63968246 208.40910115 645.05413993 208.38280405 640.46856952 208.35775608 C625.00710286 208.26016265 609.55226464 208.01588917 594.0937251 207.70779574 C566.01244287 207.15413579 537.93195778 206.83489359 509.84649158 206.59352225 C503.99642599 206.54270555 498.1463836 206.48937151 492.29633971 206.436125 C480.37571976 206.32769089 468.45508121 206.22146586 456.53443027 206.11649936 C440.25321206 205.97309349 423.9720288 205.82596892 407.69085245 205.67789638 C400.05338627 205.60843751 392.41591863 205.53913911 384.77845073 205.46987003 C384.01477658 205.46294336 383.25110243 205.45601669 382.46428664 205.44888012 C364.40615893 205.28512108 346.34801807 205.12283217 328.28987384 204.96090549 C327.5025677 204.95384492 326.71526157 204.94678436 325.90409767 204.93950983 C307.49979608 204.77446755 289.09549045 204.60988118 270.69117999 204.44582981 C264.28104404 204.38868599 257.87090813 204.3315369 251.46077228 204.27438205 C250.66937207 204.26732636 249.87797187 204.26027067 249.06258984 204.25300118 C230.96822705 204.09166982 212.8738703 203.92970761 194.7795341 203.76541752 C194.01790893 203.75850229 193.25628375 203.75158705 192.47157903 203.74446227 C184.86609217 203.6753892 177.26060655 203.60618168 169.65512263 203.53678625 C165.91387032 203.50265405 162.17261767 203.46855976 158.43136477 203.43449253 C157.69537584 203.4277907 156.9593869 203.42108887 156.20109527 203.41418396 C144.42039888 203.30700326 132.63967835 203.2027514 120.85894495 203.09972788 C109.02450158 202.99619332 97.19008575 202.88988835 85.3556924 202.780783 C78.96061788 202.7219499 72.56553876 202.66437006 66.17042232 202.61026806 C60.30174513 202.56059674 54.43311287 202.50722935 48.56449406 202.45109439 C46.4580357 202.43157158 44.35156486 202.41333537 42.24508233 202.3966223 C27.58976813 202.27933893 12.97031726 201.8103134 -1.66911054 201.11764377 C-2.42911551 188.78652785 -2.86219767 176.49864575 -2.98551679 164.14498752 C-3.00636593 162.32722055 -3.02745576 160.50945632 -3.04876447 158.69169468 C-3.10437551 153.82232116 -3.15405265 148.95290578 -3.20174146 144.08344883 C-3.23176205 141.03978247 -3.26313175 137.99613245 -3.29478192 134.95248264 C-3.61093357 104.24650502 -3.77523986 73.54107214 -3.79204679 42.83348316 C-3.7941132 39.86381875 -3.79787264 36.89416028 -3.80195355 33.92449802 C-3.80775509 29.28068011 -3.80800099 24.63689583 -3.80349278 19.99307674 C-3.80245417 18.28698285 -3.80301552 16.58088717 -3.80525136 14.87479442 C-3.80777482 12.55824827 -3.80405532 10.24179978 -3.79850507 7.92526096 C-3.79770947 6.62691318 -3.79691388 5.3285654 -3.79609418 3.99087375 C-3.62678061 0.15985406 -3.62678061 0.15985406 0 0 Z " fill="#F8D2D4" transform="translate(960.6691105365753,1062.8823562264442)"/>
<path d="M0 0 C8.5371675 -0.22158548 17.07435134 -0.38389119 25.61346436 -0.50914383 C30.85532694 -0.58877771 36.09305212 -0.69768507 41.3325882 -0.87512398 C46.31637397 -1.04314352 51.29593325 -1.13356341 56.28236961 -1.16844177 C58.12103927 -1.19478962 59.95956494 -1.24872409 61.79648781 -1.33307266 C75.39352885 -1.934712 75.39352885 -1.934712 80.41312981 1.96190262 C84.21562863 5.7726732 87.27914486 10.01858502 90.18600273 14.53572559 C91.6660984 16.819781 93.31123148 18.9462776 95.00806427 21.07262993 C95.94868364 22.32256651 96.88754324 23.5738297 97.82447052 24.82653618 C102.81984919 31.43146857 108.00344808 37.85304778 113.29468536 44.22253227 C117.37214824 49.13616474 121.34965724 54.11528483 125.27417755 59.15148735 C128.75595549 63.61032729 132.30975037 68.00650895 135.88697052 72.38903618 C142.26861323 80.21239137 148.50896369 88.13975949 154.7209549 96.09802055 C160.58590657 103.6068711 166.52652078 111.04566145 172.55054474 118.4276104 C176.49927545 123.27436456 180.37552132 128.17261878 184.22290802 133.09997368 C187.72473403 137.57340459 191.29513973 141.98765996 194.88697052 146.38903618 C199.41451124 151.93821677 203.88212914 157.52819255 208.29322052 163.17028618 C211.6285178 167.43366618 214.99954486 171.66698013 218.38697052 175.88903618 C222.22961419 180.67847175 226.04246879 185.4890921 229.82447052 190.32653618 C234.32955975 196.08521546 238.92813197 201.76331928 243.55078888 207.42785454 C247.50103876 212.27660639 251.37970548 217.17617469 255.22730255 222.10656548 C258.68071763 226.52009217 262.21193198 230.86553463 265.76197052 235.20153618 C270.22870874 240.66191059 274.56765347 246.20117959 278.82447052 251.82653618 C283.82349484 258.42882118 289.00330849 264.85287975 294.29468536 271.22253227 C298.37214824 276.13616474 302.34965724 281.11528483 306.27417755 286.15148735 C309.75595549 290.61032729 313.30975037 295.00650895 316.88697052 299.38903618 C323.26861323 307.21239137 329.50896369 315.13975949 335.7209549 323.09802055 C341.58590657 330.6068711 347.52652078 338.04566145 353.55054474 345.4276104 C357.49927545 350.27436456 361.37552132 355.17261878 365.22290802 360.09997368 C368.72473403 364.57340459 372.29513973 368.98765996 375.88697052 373.38903618 C380.41451124 378.93821677 384.88212914 384.52819255 389.29322052 390.17028618 C392.6285178 394.43366618 395.99954486 398.66698013 399.38697052 402.88903618 C403.22961419 407.67847175 407.04246879 412.4890921 410.82447052 417.32653618 C415.32955975 423.08521546 419.92813197 428.76331928 424.55078888 434.42785454 C428.50103876 439.27660639 432.37970548 444.17617469 436.22730255 449.10656548 C439.68071763 453.52009217 443.21193198 457.86553463 446.76197052 462.20153618 C451.22870874 467.66191059 455.56765347 473.20117959 459.82447052 478.82653618 C464.82349484 485.42882118 470.00330849 491.85287975 475.29468536 498.22253227 C479.37214824 503.13616474 483.34965724 508.11528483 487.27417755 513.15148735 C490.75595441 517.61032591 494.30969318 522.0065569 497.88697052 526.38903618 C502.41458411 531.93815601 506.88213042 537.52819418 511.29322052 543.17028618 C514.6285178 547.43366618 517.99954486 551.66698013 521.38697052 555.88903618 C525.22961419 560.67847175 529.04246879 565.4890921 532.82447052 570.32653618 C537.32955975 576.08521546 541.92813197 581.76331928 546.55078888 587.42785454 C550.50103876 592.27660639 554.37970548 597.17617469 558.22730255 602.10656548 C561.68071985 606.52009501 565.21204542 610.86543924 568.76197052 615.20153618 C573.762566 621.31749509 578.61918199 627.52812134 583.37085724 633.83947563 C588.8967527 641.150874 594.65147966 648.2196726 600.38697052 655.38903618 C600.71697052 502.92903618 601.04697052 350.46903618 601.38697052 193.38903618 C618.76374957 193.38903618 636.13271743 193.40277181 653.50733185 193.57262993 C655.63966008 193.59244982 657.77198943 193.61215002 659.90431976 193.63174248 C665.58425117 193.68425875 671.26416589 193.7384069 676.94407868 193.79289436 C682.92036934 193.849932 688.89667453 193.90540466 694.87297821 193.96105766 C706.14138359 194.06622267 717.4097756 194.17275397 728.67816323 194.27980137 C741.52743251 194.4017984 754.37671628 194.52223389 767.22600138 194.64255142 C793.61300735 194.88966713 819.99999492 195.1387009 846.38697052 195.38903618 C846.38697052 195.71903618 846.38697052 196.04903618 846.38697052 196.38903618 C832.19697052 196.38903618 818.00697052 196.38903618 803.38697052 196.38903618 C803.38697052 483.15903618 803.38697052 769.92903618 803.38697052 1065.38903618 C799.71813504 1066.12280328 796.95203816 1066.5182089 793.3083725 1066.5362072 C792.3088858 1066.5433625 791.30939911 1066.55051781 790.27962494 1066.55788994 C789.1942897 1066.56057884 788.10895447 1066.56326775 786.99073029 1066.56603813 C785.83896301 1066.57260933 784.68719574 1066.57918053 783.50052643 1066.58595085 C779.69314253 1066.60564566 775.88579793 1066.61733559 772.07837677 1066.62731743 C770.1271758 1066.63343072 770.1271758 1066.63343072 768.13655663 1066.63966751 C761.96533029 1066.65836151 755.7941236 1066.67293406 749.6228748 1066.68127948 C742.50953112 1066.69105947 735.39649798 1066.71740872 728.28326374 1066.75778037 C722.11256155 1066.79159678 715.94198989 1066.80342556 709.77120018 1066.80748367 C707.14972509 1066.81235969 704.52825358 1066.82400233 701.90683937 1066.84252167 C698.24184114 1066.8668124 694.577659 1066.86596639 690.91260529 1066.85900688 C689.82929428 1066.87181694 688.74598328 1066.884627 687.62984467 1066.89782524 C681.53852348 1066.85562555 678.04669433 1066.41488305 673.38697052 1062.38903618 C672.76878448 1061.86068169 672.15059845 1061.33232719 671.5136795 1060.78796196 C667.02089148 1056.26509611 663.20741005 1051.40631897 659.44947052 1046.26403618 C658.1325881 1044.48477876 656.81485102 1042.70615365 655.49634552 1040.92809868 C654.8215213 1040.01576469 654.14669708 1039.10343071 653.45142365 1038.16345024 C650.07415456 1033.62474566 646.63640239 1029.13262862 643.19947052 1024.63903618 C638.4587992 1018.43351224 633.74447483 1012.21039966 629.07447052 1005.95153618 C624.56760045 999.91885981 619.95881086 993.976068 615.28931427 988.06872368 C612.02882183 983.94274326 608.80095329 979.79163488 605.57447052 975.63903618 C604.98770538 974.88412895 604.40094025 974.12922173 603.79639435 973.35143852 C601.38894169 970.25365923 598.98221648 967.15531508 596.57544708 964.05700493 C590.69539391 956.48830479 584.81513558 948.92014731 578.88697052 941.38903618 C569.85558131 929.9145103 560.90387801 918.37816567 552.01197052 906.79528618 C548.82069077 902.6466225 545.60275752 898.51871137 542.38697052 894.38903618 C538.37231427 889.23346266 534.36596029 884.0721939 530.38697052 878.88903618 C515.33224569 859.1345342 515.33224569 859.1345342 499.58179474 839.94030571 C493.71756226 833.09421304 488.21047873 826.02409452 482.76978302 818.83825493 C479.9484488 815.11386451 477.08238927 811.42693548 474.20069122 807.7491436 C468.81537558 800.8757901 463.54150807 793.93726842 458.38697052 786.88903618 C451.57309294 777.57387385 444.519497 768.46152393 437.38697052 759.38903618 C436.40767739 758.14043744 435.42850455 756.89174434 434.44947052 755.64294243 C431.76569059 752.22204148 429.07697581 748.80504289 426.38697052 745.38903618 C419.75602141 736.96847032 413.15447432 728.52594992 406.57910919 720.06188774 C403.02858122 715.49352557 399.46622413 710.93492046 395.88697052 706.38903618 C389.95413023 698.85228169 384.06975065 691.27805659 378.18531036 683.7034893 C375.25397689 679.93087984 372.32037854 676.16003263 369.38697052 672.38903618 C368.22029258 670.88904495 367.05362592 669.38904494 365.88697052 667.88903618 C365.30947052 667.14653618 364.73197052 666.40403618 364.13697052 665.63903618 C330.88697052 622.88903618 330.88697052 622.88903618 329.1362381 620.63805962 C327.97205793 619.14127975 326.80783282 617.64453484 325.64356232 616.14782524 C322.68847879 612.3488456 319.73423038 608.54922153 316.78150177 604.74841118 C311.49875258 597.94974266 306.2123972 591.15435137 300.88697052 584.38903618 C294.95423033 576.85220209 289.06975134 569.27805747 283.18531036 561.7034893 C280.8345617 558.67808917 278.48234813 555.65383019 276.12989044 552.62975883 C274.96706738 551.13481695 273.80447003 549.63969947 272.64209747 548.14440727 C269.70453499 544.3658408 266.76372898 540.58988001 263.81665802 536.81872368 C257.69991705 528.98487047 251.65179142 521.10952551 245.71021271 513.14196587 C241.6546558 507.71566851 237.4898437 502.38313151 233.28931427 497.06872368 C230.02882183 492.94274326 226.80095329 488.79163488 223.57447052 484.63903618 C222.98770538 483.88412895 222.40094025 483.12922173 221.79639435 482.35143852 C219.38894169 479.25365923 216.98221648 476.15531508 214.57544708 473.05700493 C207.31344617 463.70948618 200.0360847 454.37483219 192.71363068 445.07458305 C190.43610846 442.18094791 188.16173045 439.28484295 185.88697052 436.38903618 C184.97031822 435.22235822 184.05365157 434.05569154 183.13697052 432.88903618 C133.63697052 369.88903618 133.63697052 369.88903618 132.26221466 368.13928032 C131.34482043 366.97173208 130.42733985 365.80425169 129.50977325 364.63683891 C127.22852807 361.73420827 124.94875838 358.83044344 122.67212677 355.92419243 C117.94084296 349.88772688 113.18478844 343.87279686 108.38697052 337.88903618 C103.13062409 331.33340618 97.92754992 324.73765122 92.74585724 318.1229229 C90.00348523 314.62376264 87.25523782 311.12921263 84.50733185 307.63439751 C82.23662657 304.74583513 79.96875067 301.85515057 77.70728302 298.95934868 C72.80963498 292.69516342 67.85431022 286.48522359 62.82447052 280.32653618 C58.0583986 274.48830748 53.4108027 268.5772416 48.83618927 262.58825493 C42.31317291 254.04927214 35.62036443 245.64941853 28.82447052 237.32653618 C24.9202434 232.54505732 21.06822114 227.73480704 17.32447052 222.82653618 C13.75813294 218.15221022 10.13090587 213.53569897 6.44947052 208.95153618 C0.25127964 201.2334824 -5.86415808 193.45266362 -11.96752167 185.65954399 C-17.15072511 179.0434031 -22.35540642 172.44625837 -27.61302948 165.88903618 C-34.23512083 157.63007126 -40.7729227 149.30616085 -47.28881073 140.96325493 C-52.72837735 134.00787294 -58.25222578 127.12955864 -63.83812714 120.29113579 C-68.40522102 114.68334346 -72.89284403 109.01168346 -77.1541214 103.16637993 C-78.64530168 101.26477744 -78.64530168 101.26477744 -80.80570221 99.37731743 C-87.51086968 92.67608916 -88.58042321 87.52680912 -88.65674114 78.31767082 C-88.63199008 75.49250591 -88.56276559 72.6704213 -88.49193573 69.84606743 C-88.47512242 67.86641666 -88.46232413 65.8867281 -88.45334625 63.90702629 C-88.41919554 58.72917724 -88.33097881 53.55364775 -88.23101044 48.37670708 C-88.13847665 43.08100569 -88.0977394 37.78492462 -88.0524826 32.48864555 C-87.95633706 22.12109719 -87.80299787 11.75526053 -87.61302948 1.38903618 C-74.39107439 1.15010717 -61.16920969 0.92143992 -47.94579315 0.78185844 C-47.13065089 0.77313367 -46.31550863 0.76440889 -45.47566509 0.75541973 C-42.05327259 0.71886057 -38.63088116 0.68230189 -35.2084713 0.6473999 C-23.46909577 0.52530761 -11.73596626 0.30883493 0 0 Z " fill="#D81F26" transform="translate(675.6130294799805,1073.6109638214111)"/>
<path d="M0 0 C2.91633988 2.29508146 5.51281662 4.34781845 7.69140625 7.36328125 C8.15498535 7.99516357 8.61856445 8.6270459 9.09619141 9.27807617 C9.58007324 9.94943604 10.06395508 10.6207959 10.5625 11.3125 C14.64148581 16.86441762 18.79534938 22.32851506 23.125 27.6875 C27.17358776 32.70803526 31.16004721 37.76446279 35.07958984 42.88671875 C38.61391982 47.5045761 42.17783604 52.09885465 45.75 56.6875 C46.34280762 57.44909424 46.93561523 58.21068848 47.54638672 58.99536133 C48.75934681 60.55345805 49.97240086 62.11148163 51.18554688 63.66943359 C54.12513339 67.44517268 57.06244872 71.22267744 60 75 C60.57500244 75.73919678 61.15000488 76.47839355 61.74243164 77.23999023 C64.69786359 81.03935898 67.65242048 84.83940318 70.60546875 88.640625 C75.88821794 95.43929352 81.17457332 102.23468481 86.5 109 C92.43274019 116.53683409 98.31721918 124.11097871 104.20166016 131.68554688 C107.13299363 135.45815634 110.06659198 139.22900355 113 143 C114.16667794 144.49999123 115.3333446 145.99999124 116.5 147.5 C117.36625 148.61375 117.36625 148.61375 118.25 149.75 C165.5 210.5 165.5 210.5 167.25073242 212.75097656 C168.41491259 214.24775643 169.5791377 215.74450134 170.7434082 217.24121094 C173.69849173 221.04019058 176.65274014 224.83981465 179.60546875 228.640625 C180.7994262 230.1771245 181.99343609 231.71358324 183.1875 233.25 C183.7640332 233.99193604 184.34056641 234.73387207 184.93457031 235.49829102 C189.14215617 240.90847142 193.3708883 246.30169541 197.62573242 251.67480469 C202.10543498 257.35030509 203.36514689 260.83774127 203.59375 268.00830078 C203.63077026 269.00299944 203.66779053 269.9976981 203.70593262 271.02253914 C204.26834597 287.93586803 204.32317064 304.86626981 204.47232056 321.78696966 C204.51963049 327.05170312 204.5716034 332.3163908 204.62304688 337.58108521 C204.72049358 347.62094003 204.81413052 357.66082636 204.90624237 367.7007314 C205.03804651 382.05132115 205.17529571 396.40185876 205.31262016 410.75239658 C205.32811494 412.37175276 205.32811494 412.37175276 205.34392273 414.0238232 C205.36477144 416.20242825 205.38562979 418.38103322 205.40649784 420.55963808 C205.46925112 427.11984198 205.53111372 433.6800536 205.5923456 440.24027187 C205.79560384 461.98873915 206.01208211 483.73685241 206.28076172 505.48461914 C206.85370099 552.05390551 207.16237033 598.61395996 207.12856936 645.18687177 C207.12472498 651.10611353 207.12623061 657.02533885 207.13037109 662.94458008 C207.17424543 727.72118358 207.17424543 727.72118358 206.6171875 750.01953125 C206.5716423 751.96722664 206.5716423 751.96722664 206.525177 753.95426941 C206.12289013 766.99436906 205.01579229 779.99618987 204 793 C186.81705408 793.02384076 169.63411362 793.04122077 152.45115471 793.05181217 C144.46466375 793.05687052 136.47818341 793.0637285 128.49169922 793.07543945 C86.31624694 793.13606639 44.1676692 792.85267395 2 792 C1.84538864 755.41670105 1.70116003 718.83336252 1.5625 682.25 C1.55974023 681.52266301 1.55698045 680.79532601 1.55413705 680.04594851 C1.1710779 579.06127362 0.89880692 478.07643578 0.46255347 277.44705208 C0.44306501 268.14681487 0.42348432 258.84657786 0.40385818 249.54634094 C0.33656245 217.64090172 0.27027386 185.73546058 0.20544751 153.83001624 C0.19102286 146.73284793 0.17649846 139.63567983 0.16189144 132.53851189 C0.13894249 121.38565603 0.11633053 110.23279959 0.0943609 99.07994176 C0.0844259 94.03724958 0.07437267 88.99455774 0.06390965 83.95186663 C0.00601507 55.96788172 -0.0095572 27.98404265 0 0 Z " fill="#E92019" transform="translate(588,1347)"/>
<path d="M0 0 C5.25769633 4.6600006 8.75201788 10.39479124 12.5625 16.25 C13.9956667 18.4256192 15.43057299 20.60009343 16.8671875 22.7734375 C17.57069336 23.83788086 18.27419922 24.90232422 18.99902344 25.99902344 C23.51519048 32.77217196 28.24636335 39.39231946 33 46 C33.51626953 46.71816895 34.03253906 47.43633789 34.56445312 48.17626953 C38.90010797 54.20167078 43.25221265 60.21513915 47.61328125 66.22216797 C58.51800187 81.24269098 69.19245971 96.41709564 79.68725586 111.72680664 C85.71924006 120.52005571 91.82516298 129.26207857 97.91943359 138.01220703 C101.28143898 142.84020773 104.64060919 147.67017987 108 152.5 C109.33331902 154.41667662 110.66665237 156.33334328 112 158.25 C200 284.75 200 284.75 202.00048828 287.62573242 C203.33215585 289.53998423 204.6638615 291.45420954 205.99560547 293.3684082 C209.35473975 298.19680432 212.71318503 303.02567707 216.0703125 307.85546875 C220.04424522 313.57214501 224.02130447 319.28663777 228 325 C228.61117676 325.87817383 229.22235352 326.75634766 229.85205078 327.66113281 C236.57042727 337.30961408 243.3478524 346.90881251 250.24902344 356.42749023 C255.38711949 363.51853131 260.44303718 370.66527896 265.47412109 377.83251953 C266.98255283 379.97521664 268.50014776 382.11115265 270.01953125 384.24609375 C277.42420074 394.6894827 284.59890391 405.28231042 291.71496582 415.92367554 C292.76344024 417.49148007 293.81296648 419.05858181 294.86364746 420.62490845 C318 455.14249464 318 455.14249464 318 462 C289.43096496 462.43405384 260.86234665 462.76999301 232.2906562 462.97024126 C228.91259676 462.99400282 225.53454384 463.01859512 222.15649414 463.04370117 C221.48402524 463.04868507 220.81155633 463.05366897 220.11870959 463.05880389 C209.24977446 463.14133559 198.38276141 463.29105338 187.51496414 463.46590313 C176.35176974 463.6439986 165.18922922 463.74778073 154.0245983 463.7876814 C147.75740673 463.8124102 141.49456347 463.87030194 135.2287693 464.00887108 C129.32327962 464.13840694 123.42390153 464.17752179 117.51712608 464.14904594 C115.35658323 464.1542496 113.19582447 464.19174664 111.03651428 464.26490402 C95.2076889 464.77462437 95.2076889 464.77462437 89.90153289 460.1848433 C86.00957865 455.70104509 83.13865153 450.74868117 80.38436353 445.51187479 C78.06326723 441.30033413 75.26775828 437.42585562 72.5 433.5 C71.41448751 431.91815987 70.33089845 430.33499656 69.25 428.75 C68.445625 427.574375 68.445625 427.574375 67.625 426.375 C-6.3125 318.3125 -6.3125 318.3125 -80.25 210.25 C-80.78665283 209.46568604 -81.32330566 208.68137207 -81.8762207 207.87329102 C-82.95557845 206.29571822 -84.03484333 204.71808187 -85.11401367 203.14038086 C-88.45016037 198.26338888 -91.78954148 193.3886362 -95.13256836 188.51635742 C-96.23913674 186.90000532 -97.34288955 185.2817215 -98.44360352 183.66137695 C-100.80356859 180.18762215 -103.17536631 176.7346044 -105.6640625 173.3515625 C-106.41429688 172.30742188 -107.16453125 171.26328125 -107.9375 170.1875 C-108.58589844 169.31480469 -109.23429687 168.44210937 -109.90234375 167.54296875 C-111 165 -111 165 -110.56640625 162.36328125 C-106.03528033 152.63435503 -100.36839832 143.75830773 -94.375 134.875 C-93.56919346 133.67384232 -92.76353106 132.47258792 -91.95800781 131.27124023 C-86.77483092 123.55731306 -81.50011617 115.91325765 -76.09960938 108.34985352 C-66.11204984 94.34863463 -56.38201596 80.19405336 -46.88980103 65.8526001 C-12.98030424 14.64444581 -12.98030424 14.64444581 0 0 Z " fill="#FEFEFE" transform="translate(2301,1676)"/>
<path d="M0 0 C0.96855549 -0.00202171 1.93711098 -0.00404343 2.93501663 -0.0061264 C6.18236557 -0.0091026 9.42922281 0.00956456 12.67651367 0.02832031 C14.99238475 0.03105333 17.30825758 0.03255109 19.62413025 0.03289795 C25.89383445 0.03793568 32.16333106 0.0622716 38.43296814 0.09054565 C43.63999954 0.11171138 48.84702766 0.1217831 54.0540905 0.13183594 C105.88201613 0.23455801 157.70801481 0.72781049 209.53198242 1.35644531 C209.24458413 3.1036834 208.94864282 4.84951749 208.64916992 6.59472656 C208.48529785 7.56708252 208.32142578 8.53943848 208.15258789 9.54125977 C206.36022769 17.67174974 200.61437709 24.034144 195.67114258 30.50976562 C191.12240353 36.49013602 186.80623902 42.61510559 182.53198242 48.79394531 C181.84998779 49.77975586 181.16799316 50.76556641 180.46533203 51.78125 C179.11815515 53.72947999 177.77122574 55.67788112 176.42456055 57.62646484 C173.73210999 61.51023446 171.01140727 65.37360421 168.28198242 69.23144531 C167.80100098 69.91158691 167.32001953 70.59172852 166.82446289 71.29248047 C165.86947962 72.64227214 164.91424175 73.99188373 163.95874023 75.34130859 C161.52250578 78.78221879 159.08925075 82.22523075 156.65698242 85.66894531 C156.16681641 86.36294434 155.67665039 87.05694336 155.17163086 87.77197266 C151.27747327 93.2901681 147.40258816 98.82171214 143.53198242 104.35644531 C137.71074559 112.6804635 131.86344042 120.9856288 125.99975586 129.27978516 C123.50877258 132.80412044 121.02050177 136.33037004 118.53198242 139.85644531 C115.55671791 144.07220785 112.5809845 148.28763309 109.60229492 152.50097656 C104.22693098 160.10654469 98.86943229 167.72421336 93.53198242 175.35644531 C87.71074559 183.6804635 81.86344042 191.9856288 75.99975586 200.27978516 C73.50877258 203.80412044 71.02050177 207.33037004 68.53198242 210.85644531 C65.55671791 215.07220785 62.5809845 219.28763309 59.60229492 223.50097656 C54.22693098 231.10654469 48.86943229 238.72421336 43.53198242 246.35644531 C37.71074559 254.6804635 31.86344042 262.9856288 25.99975586 271.27978516 C23.50877258 274.80412044 21.02050177 278.33037004 18.53198242 281.85644531 C15.55671791 286.07220785 12.5809845 290.28763309 9.60229492 294.50097656 C4.22693098 302.10654469 -1.13056771 309.72421336 -6.46801758 317.35644531 C-12.28925441 325.6804635 -18.13655958 333.9856288 -24.00024414 342.27978516 C-26.49122742 345.80412044 -28.97949823 349.33037004 -31.46801758 352.85644531 C-34.44328209 357.07220785 -37.4190155 361.28763309 -40.39770508 365.50097656 C-45.77306902 373.10654469 -51.13056771 380.72421336 -56.46801758 388.35644531 C-62.28925441 396.6804635 -68.13655958 404.9856288 -74.00024414 413.27978516 C-76.98607843 417.50425396 -79.96839948 421.73120452 -82.95092773 425.95800781 C-85.54798147 429.63809185 -88.14707044 433.31671473 -90.74926758 436.99316406 C-91.2880957 437.755 -91.82692383 438.51683594 -92.38208008 439.30175781 C-93.40746565 440.75144086 -94.4334654 442.20068975 -95.46020508 443.64941406 C-98.19182991 447.51292763 -100.86321549 451.40623837 -103.46801758 455.35644531 C-107.50016379 454.01239657 -108.47823842 451.47243563 -110.53051758 447.98144531 C-115.12346866 440.40748813 -119.97045342 433.02357771 -124.90551758 425.66894531 C-126.46770398 423.33757482 -128.02880653 421.00548174 -129.58911133 418.67285156 C-130.18457512 417.78264313 -130.18457512 417.78264313 -130.79206848 416.87445068 C-136.1679731 408.82602681 -141.45643489 400.72009549 -146.74707031 392.61547852 C-151.80103993 384.87680189 -156.90758581 377.17485407 -162.04296875 369.48999023 C-164.7239877 365.4760405 -167.40026264 361.45892689 -170.07739258 357.44238281 C-171.25706118 355.67283896 -172.43674892 353.90330787 -173.61645508 352.13378906 C-176.00187174 348.55566406 -178.38728841 344.97753906 -180.77270508 341.39941406 C-181.35959106 340.51916565 -181.94647705 339.63891724 -182.55114746 338.73199463 C-183.73203086 336.96050722 -184.91261525 335.18882046 -186.09289551 333.41693115 C-189.16723049 328.80246301 -192.24750616 324.19211981 -195.3371582 319.58789062 C-195.9689801 318.64466949 -196.600802 317.70144836 -197.25177002 316.72964478 C-198.45374672 314.93552969 -199.65752791 313.14262167 -200.86346436 311.35116577 C-202.41647497 309.03082806 -203.94957409 306.69952123 -205.46801758 304.35644531 C-206.12054504 303.36097687 -206.12054504 303.36097687 -206.78625488 302.34539795 C-209.5409826 297.90817455 -209.5409826 297.90817455 -209.20898438 295.39775085 C-208.41347242 293.20617767 -207.43885869 291.48968898 -206.15258789 289.5456543 C-205.42045074 288.4303257 -205.42045074 288.4303257 -204.67352295 287.29246521 C-204.13648743 286.48728958 -203.5994519 285.68211395 -203.04614258 284.85253906 C-202.48316467 283.99914444 -201.92018677 283.14574982 -201.34014893 282.26649475 C-199.47190302 279.4384276 -197.59514264 276.61612528 -195.71801758 273.79394531 C-194.40066949 271.80455451 -193.08361665 269.81496817 -191.7668457 267.82519531 C-182.31732634 253.56480122 -172.76473126 239.37459531 -163.17529297 225.20803833 C-153.75087229 211.28418896 -144.45061919 197.28315152 -135.21801758 183.23144531 C-126.59139957 170.10480897 -117.91492837 157.02422096 -109.04614258 144.05957031 C-102.90240358 135.0776604 -96.80762938 126.0626127 -90.71801758 117.04394531 C-90.10427277 116.13499512 -89.49052795 115.22604492 -88.85818481 114.28955078 C-76.19757242 95.52640947 -63.73359076 76.63578965 -51.31358337 57.71281433 C-47.57592104 52.02390974 -43.80191217 46.36023338 -40.01489258 40.70410156 C-35.97287376 34.66304482 -32.06553124 28.56230228 -28.28051758 22.35644531 C-23.95013617 15.38447419 -19.49754543 8.99697137 -13.46801758 3.35644531 C-12.71099297 2.56889862 -12.71099297 2.56889862 -11.93867493 1.76544189 C-8.09011599 -0.4293612 -4.35547066 -0.04417877 0 0 Z " fill="#FEFEFE" transform="translate(2399.468017578125,1069.6435546875)"/>
</svg>
